# xmcd CD database file
#
# Track frame offsets:
#	150
#	21075
#	47625
#	91800
#	120500
#	153225
#
# Disc length: 2507 seconds
#
# Revision: 0
# Processed by: cddbd v1.5.2PL0 Copyright (c) Steve Scherf et al.
# Submitted via: CDex 1.70beta2
#
DISCID=3a09c906
DTITLE=Miles Davis - Miles Smiles
DYEAR=1966
DGENRE=Jazz
TTITLE0=Orbits
TTITLE1=Circle
TTITLE2=Footprints
TTITLE3=Dolores
TTITLE4=Freedom jazz dance
TTITLE5=Ginger bread boy
EXTD=YEAR: 1966
EXTT0=
EXTT1=
EXTT2=
EXTT3=
EXTT4=
EXTT5=
PLAYORDER=
